<?xml version="1.0" encoding="iso-8859-1"?>
<!-- Generator: Adobe Illustrator 19.0.0, SVG Export Plug-In . SVG Version: 6.00 Build 0)  -->
<svg version="1.1" id="Capa_1" xmlns="http://www.w3.org/2000/svg" xmlns:xlink="http://www.w3.org/1999/xlink" x="0px" y="0px"
	 viewBox="0 0 512 512" style="enable-background:new 0 0 512 512;" xml:space="preserve">
<g>
	<g>
		<path d="M468.676,474.589L333.331,195.442L358.28,87.343c0.658-2.87-0.205-5.876-2.289-7.961
			c-9.396-9.412-14.572-21.926-14.58-35.224V8.541c0-4.715-3.818-8.541-8.541-8.541h-34.165c-4.723,0-8.541,3.826-8.541,8.541
			v51.248c0,18.842-15.323,34.165-34.165,34.165c-18.842,0-34.165-15.323-34.165-34.165V8.541c0-4.715-3.826-8.541-8.541-8.541
			h-34.165c-4.715,0-8.541,3.826-8.541,8.541v35.617c-0.009,13.299-5.193,25.812-14.589,35.224
			c-2.084,2.084-2.938,5.091-2.281,7.961l24.949,108.099L43.319,474.589c-1.119,2.315-1.145,5.014-0.051,7.346
			c1.085,2.332,3.169,4.049,5.663,4.664c67.733,16.937,137.387,25.41,207.058,25.402c69.663,0,139.343-8.464,207.075-25.402
			c2.503-0.615,4.578-2.34,5.671-4.664C469.821,479.603,469.804,476.904,468.676,474.589z M63.306,472.514l132.049-272.34
			c0.854-1.751,1.076-3.741,0.641-5.646L171.388,87.907c10.523-12.154,16.271-27.512,16.28-43.749V17.083h17.083v42.707
			c0,28.263,22.985,51.248,51.248,51.248c28.263,0,51.248-22.985,51.248-51.248V17.083h17.083v27.076
			c0.008,16.246,5.757,31.603,16.28,43.749l-24.607,106.621c-0.436,1.905-0.214,3.895,0.641,5.646l132.04,272.339
			C322.372,502.391,189.606,502.391,63.306,472.514z"/>
	</g>
</g>
<g>
	<g>
		<rect x="213.283" y="187.909" width="17.083" height="17.083"/>
	</g>
</g>
<g>
	<g>
		<rect x="247.448" y="187.909" width="17.083" height="17.083"/>
	</g>
</g>
<g>
	<g>
		<rect x="281.613" y="187.909" width="17.083" height="17.083"/>
	</g>
</g>
<g>
	<g>
		
			<rect x="96.06" y="444.129" transform="matrix(0.2871 -0.9579 0.9579 0.2871 -333.3466 457.4332)" width="89.171" height="17.083"/>
	</g>
</g>
<g>
	<g>
		
			<rect x="174.626" y="452.696" transform="matrix(0.0996 -0.995 0.995 0.0996 -263.0664 631.7601)" width="85.838" height="17.082"/>
	</g>
</g>
<g>
	<g>
		
			<rect x="362.725" y="408.113" transform="matrix(0.9578 -0.2873 0.2873 0.9578 -114.4112 125.7556)" width="17.082" height="89.168"/>
	</g>
</g>
<g>
	<g>
		<rect x="285.873" y="418.295" transform="matrix(0.995 -0.0995 0.0995 0.995 -44.4311 31.5839)" width="17.082" height="85.837"/>
	</g>
</g>
<g>
	<g>
		<path d="M292.128,3.083c-1.811,2.169-3.826,4.194-6.005,6.005c-19.944,16.621-49.676,13.914-66.281-6.013l-13.119,10.941
			c12.667,15.195,30.928,23.036,49.318,23.036c14.486,0,29.049-4.869,41.024-14.845c2.964-2.477,5.723-5.227,8.191-8.191
			L292.128,3.083z"/>
	</g>
</g>
<g>
	<g>
		<rect x="238.907" y="51.248" width="34.165" height="17.083"/>
	</g>
</g>
<g>
</g>
<g>
</g>
<g>
</g>
<g>
</g>
<g>
</g>
<g>
</g>
<g>
</g>
<g>
</g>
<g>
</g>
<g>
</g>
<g>
</g>
<g>
</g>
<g>
</g>
<g>
</g>
<g>
</g>
</svg>
