<?xml version="1.0" encoding="iso-8859-1"?>
<!-- Generator: Adobe Illustrator 19.0.0, SVG Export Plug-In . SVG Version: 6.00 Build 0)  -->
<svg version="1.1" id="Capa_1" xmlns="http://www.w3.org/2000/svg" xmlns:xlink="http://www.w3.org/1999/xlink" x="0px" y="0px"
	 viewBox="0 0 512 512" style="enable-background:new 0 0 512 512;" xml:space="preserve">
<g>
	<g>
		<path d="M511.933,126.925c-0.29-2.253-1.468-4.301-3.268-5.683L397.732,35.908c-1.485-1.152-3.311-1.775-5.197-1.775h-59.733
			c-4.719,0-8.533,3.823-8.533,8.533c0,37.641-30.626,68.267-68.267,68.267c-37.64,0-68.267-30.626-68.267-68.267
			c0-4.71-3.823-8.533-8.533-8.533h-59.733c-1.886,0-3.712,0.623-5.205,1.766L3.329,121.233c-1.801,1.382-2.97,3.43-3.26,5.683
			c-0.29,2.244,0.333,4.523,1.724,6.315l59.733,76.8c2.842,3.652,8.073,4.369,11.785,1.647l37.623-27.588v285.244
			c0,4.719,3.823,8.533,8.533,8.533h273.067c4.719,0,8.533-3.814,8.533-8.533V184.09l37.615,27.597
			c3.755,2.731,8.96,1.997,11.785-1.647l59.733-76.8C511.6,131.447,512.215,129.178,511.933,126.925z M442.096,193.007l-44.51-32.64
			c-2.594-1.894-6.042-2.167-8.909-0.725c-2.867,1.451-4.676,4.395-4.676,7.612V460.8h-256V167.253c0-3.217-1.809-6.161-4.676-7.603
			c-2.859-1.442-6.306-1.169-8.9,0.725l-44.51,32.64l-49.374-63.479L122.369,51.2h48.725c4.292,43.059,40.738,76.8,84.907,76.8
			c44.177,0,80.614-33.741,84.907-76.8h48.725l101.837,78.327L442.096,193.007z"/>
	</g>
</g>
<g>
	<g>
		<rect x="230.402" y="76.8" width="51.2" height="17.067"/>
	</g>
</g>
<g>
	<g>
		<path d="M330.105,34.577c-47.804,15.957-100.412,15.957-148.198,0l-5.41,16.188c25.634,8.559,52.565,12.834,79.505,12.834
			c26.931,0,53.862-4.284,79.505-12.834L330.105,34.577z"/>
	</g>
</g>
<g>
</g>
<g>
</g>
<g>
</g>
<g>
</g>
<g>
</g>
<g>
</g>
<g>
</g>
<g>
</g>
<g>
</g>
<g>
</g>
<g>
</g>
<g>
</g>
<g>
</g>
<g>
</g>
<g>
</g>
</svg>
