<?xml version="1.0" encoding="iso-8859-1"?>
<!-- Generator: Adobe Illustrator 19.0.0, SVG Export Plug-In . SVG Version: 6.00 Build 0)  -->
<svg version="1.1" id="Capa_1" xmlns="http://www.w3.org/2000/svg" xmlns:xlink="http://www.w3.org/1999/xlink" x="0px" y="0px"
	 viewBox="0 0 512.002 512.002" style="enable-background:new 0 0 512.002 512.002;" xml:space="preserve">
<g>
	<g>
		<path d="M426.665,128v17.066c14.114,0,25.6,11.486,25.6,25.6v315.728l-20.505-15.36c-3.029-2.287-7.202-2.287-10.231,0
			l-29.013,21.76l-29.013-21.76c-3.029-2.287-7.202-2.287-10.231,0l-29.013,21.76l-29.013-21.76c-3.029-2.287-7.202-2.287-10.231,0
			l-29.013,21.76l-29.013-21.76c-3.029-2.287-7.211-2.287-10.24,0l-20.48,15.36V170.666c0-23.526-19.14-42.666-42.666-42.666
			s-42.666,19.14-42.666,42.666V341.33c0,14.114-11.486,25.6-25.6,25.6s-25.6-11.486-25.6-25.6V25.602l20.48,15.36
			c3.029,2.278,7.211,2.278,10.24,0l29.013-21.76l29.013,21.76c3.029,2.278,7.211,2.278,10.24,0l29.013-21.76l29.013,21.76
			c3.029,2.278,7.211,2.278,10.24,0l29.013-21.76l29.021,21.76c3.029,2.278,7.202,2.278,10.231,0l20.48-15.36v110.931H332.8V8.535
			c0-3.234-1.826-6.187-4.719-7.637c-2.893-1.442-6.349-1.126-8.934,0.811l-29.013,21.76l-29.013-21.76
			c-3.038-2.278-7.211-2.278-10.24,0l-29.013,21.76l-29.013-21.76c-3.029-2.278-7.211-2.278-10.24,0l-29.013,21.76L124.59,1.709
			c-3.029-2.278-7.211-2.278-10.24,0l-29.013,21.76L56.324,1.709c-2.586-1.937-6.05-2.253-8.934-0.811
			c-2.893,1.451-4.719,4.403-4.719,7.637V341.33c0,23.526,19.14,42.666,42.666,42.666s42.666-19.14,42.666-42.666V170.666
			c0-14.114,11.486-25.6,25.6-25.6s25.6,11.486,25.6,25.6V503.46c0,3.234,1.826,6.187,4.719,7.637
			c2.884,1.425,6.349,1.135,8.934-0.811l29.013-21.76l29.013,21.76c3.038,2.287,7.211,2.287,10.24,0l29.013-21.76l29.021,21.76
			c3.029,2.287,7.202,2.287,10.231,0l29.013-21.76l29.021,21.76c3.029,2.287,7.202,2.287,10.231,0l29.013-21.76l29.013,21.76
			c1.502,1.135,3.311,1.707,5.12,1.707c1.306,0,2.611-0.299,3.814-0.896c2.893-1.451,4.719-4.403,4.719-7.637V170.666
			C469.331,147.14,450.191,128,426.665,128z"/>
	</g>
</g>
<g>
	<g>
		<rect x="153.603" y="128" width="273.062" height="17.066"/>
	</g>
</g>
<g>
	<g>
		<rect x="85.337" y="366.929" width="102.398" height="17.066"/>
	</g>
</g>
<g>
	<g>
		<rect x="230.402" y="290.131" width="102.398" height="17.066"/>
	</g>
</g>
<g>
	<g>
		<rect x="383.999" y="290.131" width="34.133" height="17.066"/>
	</g>
</g>
<g>
	<g>
		<rect x="230.402" y="341.33" width="68.266" height="17.066"/>
	</g>
</g>
<g>
	<g>
		<rect x="383.999" y="341.33" width="34.133" height="17.066"/>
	</g>
</g>
<g>
	<g>
		<rect x="230.402" y="392.529" width="102.398" height="17.066"/>
	</g>
</g>
<g>
	<g>
		<rect x="383.999" y="392.529" width="34.133" height="17.066"/>
	</g>
</g>
<g>
	<g>
		<rect x="230.402" y="187.732" width="102.398" height="17.066"/>
	</g>
</g>
<g>
	<g>
		<rect x="383.999" y="187.732" width="34.133" height="17.066"/>
	</g>
</g>
<g>
	<g>
		<rect x="230.402" y="238.932" width="68.266" height="17.066"/>
	</g>
</g>
<g>
	<g>
		<rect x="383.999" y="238.932" width="34.133" height="17.066"/>
	</g>
</g>
<g>
	<g>
		<rect x="93.87" y="230.398" width="25.6" height="17.066"/>
	</g>
</g>
<g>
	<g>
		<rect x="93.87" y="281.597" width="25.6" height="17.066"/>
	</g>
</g>
<g>
	<g>
		<rect x="93.87" y="128" width="59.732" height="17.066"/>
	</g>
</g>
<g>
	<g>
		<rect x="93.87" y="179.199" width="25.6" height="17.066"/>
	</g>
</g>
<g>
	<g>
		<rect x="93.87" y="76.801" width="102.398" height="17.066"/>
	</g>
</g>
<g>
	<g>
		<rect x="247.468" y="76.801" width="34.133" height="17.066"/>
	</g>
</g>
<g>
</g>
<g>
</g>
<g>
</g>
<g>
</g>
<g>
</g>
<g>
</g>
<g>
</g>
<g>
</g>
<g>
</g>
<g>
</g>
<g>
</g>
<g>
</g>
<g>
</g>
<g>
</g>
<g>
</g>
</svg>
