<?xml version="1.0" encoding="iso-8859-1"?>
<!-- Generator: Adobe Illustrator 18.0.0, SVG Export Plug-In . SVG Version: 6.00 Build 0)  -->
<!DOCTYPE svg PUBLIC "-//W3C//DTD SVG 1.1//EN" "http://www.w3.org/Graphics/SVG/1.1/DTD/svg11.dtd">
<svg version="1.1" id="Capa_1" xmlns="http://www.w3.org/2000/svg" xmlns:xlink="http://www.w3.org/1999/xlink" x="0px" y="0px"
	 viewBox="0 0 425.336 425.336" style="enable-background:new 0 0 425.336 425.336;" xml:space="preserve">
<g>
	<path d="M182.79,221.346h-45.872V15h28.342c3.613,22.915,23.495,40.496,47.409,40.496S256.465,37.915,260.079,15h28.339v114.851
		c0,4.142,3.358,7.5,7.5,7.5s7.5-3.358,7.5-7.5v-20.217l16.141,8.07c1.071,0.536,2.217,0.792,3.35,0.792
		c2.372,0,4.685-1.126,6.132-3.176l35.999-50.997c2.254-3.194,1.677-7.584-1.326-10.087L300.747,1.765
		C299.442,0.665,297.758,0,295.918,0h-166.5c-1.843,0-3.528,0.667-4.834,1.77l-62.96,52.466c-3.003,2.503-3.581,6.893-1.326,10.087
		l35.999,50.997c1.447,2.049,3.76,3.176,6.132,3.176c1.132,0,2.278-0.257,3.35-0.792l16.14-8.07v119.212c0,4.142,3.358,7.5,7.5,7.5
		h53.372c4.142,0,7.5-3.358,7.5-7.5S186.932,221.346,182.79,221.346z M320.502,101.405l-17.084-8.542V23.517l45.374,37.811
		L320.502,101.405z M212.669,40.496c-15.615,0-28.722-10.905-32.129-25.496h64.258C241.391,29.592,228.284,40.496,212.669,40.496z
		 M104.834,101.405l-28.29-40.077l45.374-37.811v69.346L104.834,101.405z"/>
	<path d="M357.692,146.063H206.896c-4.142,0-7.5,3.358-7.5,7.5v264.274c0,4.142,3.358,7.5,7.5,7.5h57.751
		c3.98,0,7.268-3.109,7.488-7.084l10.158-182.747l10.158,182.747c0.221,3.974,3.508,7.084,7.488,7.084h57.751
		c4.142,0,7.5-3.358,7.5-7.5V153.563C365.192,149.42,361.834,146.063,357.692,146.063z M350.192,177.848h-23.65v-16.785h23.65
		V177.848z M253.046,177.848v-16.785h58.496v16.785H253.046z M238.046,161.063v16.785h-23.65v-16.785H238.046z M307.036,410.336
		L296.841,226.94c-0.221-3.974-3.508-7.084-7.488-7.084h-14.117c-3.98,0-7.268,3.109-7.488,7.084l-10.194,183.396h-43.157V192.848
		h135.796v217.488H307.036z"/>
</g>
<g>
</g>
<g>
</g>
<g>
</g>
<g>
</g>
<g>
</g>
<g>
</g>
<g>
</g>
<g>
</g>
<g>
</g>
<g>
</g>
<g>
</g>
<g>
</g>
<g>
</g>
<g>
</g>
<g>
</g>
</svg>
