<svg xmlns="http://www.w3.org/2000/svg" xmlns:xlink="http://www.w3.org/1999/xlink" xmlns:fi="http://pattern.flaticon.com/" x="0" y="0" width="700" height="350" viewBox="0 0 700 350"><rect x="0px" y="0px" width="100%" height="100%" opacity="1" fill="#ffffff"/><defs><g transform="matrix(0.12696638703346252 0 0 0.12696638703346252 286.4966049194336 98.4966049194336)" id="L1_0"><path d="M511.933,126.925c-0.29-2.253-1.468-4.301-3.268-5.683L397.732,35.908c-1.485-1.152-3.311-1.775-5.197-1.775h-59.733    c-4.719,0-8.533,3.823-8.533,8.533c0,37.641-30.626,68.267-68.267,68.267c-37.64,0-68.267-30.626-68.267-68.267    c0-4.71-3.823-8.533-8.533-8.533h-59.733c-1.886,0-3.712,0.623-5.205,1.766L3.329,121.233c-1.801,1.382-2.97,3.43-3.26,5.683    c-0.29,2.244,0.333,4.523,1.724,6.315l59.733,76.8c2.842,3.652,8.073,4.369,11.785,1.647l37.623-27.588v285.244    c0,4.719,3.823,8.533,8.533,8.533h273.067c4.719,0,8.533-3.814,8.533-8.533V184.09l37.615,27.597    c3.755,2.731,8.96,1.997,11.785-1.647l59.733-76.8C511.6,131.447,512.215,129.178,511.933,126.925z M442.096,193.007l-44.51-32.64    c-2.594-1.894-6.042-2.167-8.909-0.725c-2.867,1.451-4.676,4.395-4.676,7.612V460.8h-256V167.253c0-3.217-1.809-6.161-4.676-7.603    c-2.859-1.442-6.306-1.169-8.9,0.725l-44.51,32.64l-49.374-63.479L122.369,51.2h48.725c4.292,43.059,40.738,76.8,84.907,76.8    c44.177,0,80.614-33.741,84.907-76.8h48.725l101.837,78.327L442.096,193.007z"/><rect x="230px" y="76px" width="51px" height="17px"/><path d="M330.105,34.577c-47.804,15.957-100.412,15.957-148.198,0l-5.41,16.188c25.634,8.559,52.565,12.834,79.505,12.834    c26.931,0,53.862-4.284,79.505-12.834L330.105,34.577z"/></g><g transform="matrix(0.17091453075408936 0 0 0.17091453075408936 -10.753981137495657 116.24588012695312)" id="L1_1"><path d="M468.676,474.589L333.331,195.442L358.28,87.343c0.658-2.87-0.205-5.876-2.289-7.961    c-9.396-9.412-14.572-21.926-14.58-35.224V8.541c0-4.715-3.818-8.541-8.541-8.541h-34.165c-4.723,0-8.541,3.826-8.541,8.541    v51.248c0,18.842-15.323,34.165-34.165,34.165c-18.842,0-34.165-15.323-34.165-34.165V8.541c0-4.715-3.826-8.541-8.541-8.541    h-34.165c-4.715,0-8.541,3.826-8.541,8.541v35.617c-0.009,13.299-5.193,25.812-14.589,35.224    c-2.084,2.084-2.938,5.091-2.281,7.961l24.949,108.099L43.319,474.589c-1.119,2.315-1.145,5.014-0.051,7.346    c1.085,2.332,3.169,4.049,5.663,4.664c67.733,16.937,137.387,25.41,207.058,25.402c69.663,0,139.343-8.464,207.075-25.402    c2.503-0.615,4.578-2.34,5.671-4.664C469.821,479.603,469.804,476.904,468.676,474.589z M63.306,472.514l132.049-272.34    c0.854-1.751,1.076-3.741,0.641-5.646L171.388,87.907c10.523-12.154,16.271-27.512,16.28-43.749V17.083h17.083v42.707    c0,28.263,22.985,51.248,51.248,51.248c28.263,0,51.248-22.985,51.248-51.248V17.083h17.083v27.076    c0.008,16.246,5.757,31.603,16.28,43.749l-24.607,106.621c-0.436,1.905-0.214,3.895,0.641,5.646l132.04,272.339    C322.372,502.391,189.606,502.391,63.306,472.514z"/><rect x="213px" y="187px" width="17px" height="17px"/><rect x="247px" y="187px" width="17px" height="17px"/><rect x="281px" y="187px" width="17px" height="17px"/><rect x="96px" y="444px" width="89px" height="17px" transform="matrix(0.2871 -0.9579 0.9579 0.2871 -333.3466 457.4332)"/><rect x="174px" y="452px" width="85px" height="17px" transform="matrix(0.0996 -0.995 0.995 0.0996 -263.0664 631.7601)"/><rect x="362px" y="408px" width="17px" height="89px" transform="matrix(0.9578 -0.2873 0.2873 0.9578 -114.4112 125.7556)"/><rect x="285px" y="418px" width="17px" height="85px" transform="matrix(0.995 -0.0995 0.0995 0.995 -44.4311 31.5839)"/><path d="M292.128,3.083c-1.811,2.169-3.826,4.194-6.005,6.005c-19.944,16.621-49.676,13.914-66.281-6.013l-13.119,10.941    c12.667,15.195,30.928,23.036,49.318,23.036c14.486,0,29.049-4.869,41.024-14.845c2.964-2.477,5.723-5.227,8.191-8.191    L292.128,3.083z"/><rect x="238px" y="51px" width="34px" height="17px"/></g><g transform="matrix(0.144015833735466 0 0 0.144015833735466 282.13205236850945 157.1319465637207)" id="L1_2"><path d="M409.588,494.481l-25.6-486.4C383.749,3.558,380.003,0,375.463,0H136.529c-4.54,0-8.286,3.558-8.516,8.09l-25.6,486.4    c-0.239,4.548,3.14,8.491,7.671,8.943l85.333,8.533c4.471,0.384,8.55-2.671,9.267-7.117l51.311-315.204l51.311,315.196    c0.683,4.156,4.284,7.159,8.414,7.159c0.282,0,0.563-0.017,0.862-0.043l85.333-8.533    C406.447,502.972,409.818,499.029,409.588,494.481z M322.863,494.174l-58.445-359.014c-0.674-4.13-4.241-7.159-8.422-7.159    c-4.181,0-7.748,3.029-8.422,7.168l-58.445,359.014l-69.248-6.929l24.747-470.187h222.737l24.747,470.178L322.863,494.174z"/><rect x="136px" y="34px" width="238px" height="17px"/><path d="M247.463,8.533v111.863c-10.752-9.907-17.058-23.919-17.067-39.074V8.533h-17.067v72.789    c0.017,26.778,14.899,50.859,38.852,62.839c1.203,0.606,2.509,0.905,3.814,0.905c1.553,0,3.115-0.427,4.48-1.271    c2.517-1.562,4.053-4.301,4.053-7.262v-128H247.463z"/><path d="M170.825,41.02l-1.024,5.171c-4.13,20.54-16.964,37.82-35.354,47.676h-6.451v17.067h8.533    c1.331,0,2.637-0.307,3.823-0.896c24.055-12.058,40.883-34.099,46.191-60.51l1.024-5.205L170.825,41.02z"/><path d="M377.553,93.858c-18.398-9.856-31.232-27.128-35.354-47.642l-1.024-5.205l-16.751,3.302l1.033,5.24    c5.308,26.377,22.144,48.418,46.182,60.476c1.186,0.597,2.5,0.905,3.823,0.905h8.533V93.858H377.553z"/></g></defs><g fi:class="KUsePattern"><pattern id="pattern_L1_0" width="350" height="350" patternUnits="userSpaceOnUse"><use xlink:href="#L1_0" x="-350" y="-350"/><use xlink:href="#L1_0" x="0" y="-350"/><use xlink:href="#L1_0" x="350" y="-350"/><use xlink:href="#L1_0" x="-350" y="0"/><use xlink:href="#L1_0" x="0" y="0"/><use xlink:href="#L1_0" x="350" y="0"/><use xlink:href="#L1_0" x="-350" y="350"/><use xlink:href="#L1_0" x="0" y="350"/><use xlink:href="#L1_0" x="350" y="350"/></pattern><rect x="0" y="0" width="100%" height="100%" fill="url(#pattern_L1_0)"/></g><g fi:class="KUsePattern"><pattern id="pattern_L1_1" width="350" height="350" patternUnits="userSpaceOnUse"><use xlink:href="#L1_1" x="-350" y="-350"/><use xlink:href="#L1_1" x="0" y="-350"/><use xlink:href="#L1_1" x="350" y="-350"/><use xlink:href="#L1_1" x="-350" y="0"/><use xlink:href="#L1_1" x="0" y="0"/><use xlink:href="#L1_1" x="350" y="0"/><use xlink:href="#L1_1" x="-350" y="350"/><use xlink:href="#L1_1" x="0" y="350"/><use xlink:href="#L1_1" x="350" y="350"/></pattern><rect x="0" y="0" width="100%" height="100%" fill="url(#pattern_L1_1)"/></g><g fi:class="KUsePattern"><pattern id="pattern_L1_2" width="350" height="350" patternUnits="userSpaceOnUse"><use xlink:href="#L1_2" x="-350" y="-350"/><use xlink:href="#L1_2" x="0" y="-350"/><use xlink:href="#L1_2" x="350" y="-350"/><use xlink:href="#L1_2" x="-350" y="0"/><use xlink:href="#L1_2" x="0" y="0"/><use xlink:href="#L1_2" x="350" y="0"/><use xlink:href="#L1_2" x="-350" y="350"/><use xlink:href="#L1_2" x="0" y="350"/><use xlink:href="#L1_2" x="350" y="350"/></pattern><rect x="0" y="0" width="100%" height="100%" fill="url(#pattern_L1_2)"/></g></svg>