<?xml version="1.0" encoding="iso-8859-1"?>
<!-- Generator: Adobe Illustrator 19.0.0, SVG Export Plug-In . SVG Version: 6.00 Build 0)  -->
<svg version="1.1" id="Capa_1" xmlns="http://www.w3.org/2000/svg" xmlns:xlink="http://www.w3.org/1999/xlink" x="0px" y="0px"
	 viewBox="0 0 512 512" style="enable-background:new 0 0 512 512;" xml:space="preserve">
<g>
	<g>
		<path d="M503.467,443.733H8.533c-4.71,0-8.533,3.814-8.533,8.533V486.4c0,4.719,3.823,8.533,8.533,8.533h494.933
			c4.719,0,8.533-3.814,8.533-8.533v-34.133C512,447.548,508.186,443.733,503.467,443.733z M494.933,477.867H17.067V460.8h477.867
			V477.867z"/>
	</g>
</g>
<g>
	<g>
		<path d="M503.211,160.06l-25.6-102.4c-0.956-3.789-4.361-6.46-8.277-6.46H42.667c-3.917,0-7.33,2.671-8.277,6.46l-25.6,102.4
			c-0.64,2.551-0.06,5.248,1.553,7.322s4.096,3.285,6.724,3.285h477.867c2.628,0,5.103-1.212,6.724-3.285
			S503.851,162.611,503.211,160.06z M27.998,153.6l21.333-85.333h413.338l21.333,85.333H27.998z"/>
	</g>
</g>
<g>
	<g>
		<path d="M281.6,162.133V179.2c0,14.114-11.486,25.6-25.6,25.6s-25.6-11.486-25.6-25.6v-17.067h-17.067V179.2
			c0,23.526,19.14,42.667,42.667,42.667c23.526,0,42.667-19.14,42.667-42.667v-17.067H281.6z"/>
	</g>
</g>
<g>
	<g>
		<path d="M213.333,162.133V179.2c0,14.114-11.486,25.6-25.6,25.6s-25.6-11.486-25.6-25.6v-17.067h-17.067V179.2
			c0,23.526,19.14,42.667,42.667,42.667c23.526,0,42.667-19.14,42.667-42.667v-17.067H213.333z"/>
	</g>
</g>
<g>
	<g>
		<path d="M145.067,162.133V179.2c0,14.114-11.486,25.6-25.6,25.6s-25.6-11.486-25.6-25.6v-17.067H76.8V179.2
			c0,23.526,19.14,42.667,42.667,42.667s42.667-19.14,42.667-42.667v-17.067H145.067z"/>
	</g>
</g>
<g>
	<g>
		<path d="M76.8,162.133V179.2c0,14.114-11.486,25.6-25.6,25.6s-25.6-11.486-25.6-25.6v-17.067H8.533V179.2
			c0,23.526,19.14,42.667,42.667,42.667c23.526,0,42.667-19.14,42.667-42.667v-17.067H76.8z"/>
	</g>
</g>
<g>
	<g>
		<path d="M486.4,162.133V179.2c0,14.114-11.486,25.6-25.6,25.6c-14.114,0-25.6-11.486-25.6-25.6v-17.067h-17.067V179.2
			c0,23.526,19.14,42.667,42.667,42.667c23.526,0,42.667-19.14,42.667-42.667v-17.067H486.4z"/>
	</g>
</g>
<g>
	<g>
		<path d="M418.133,162.133V179.2c0,14.114-11.486,25.6-25.6,25.6c-14.114,0-25.6-11.486-25.6-25.6v-17.067h-17.067V179.2
			c0,23.526,19.14,42.667,42.667,42.667c23.526,0,42.667-19.14,42.667-42.667v-17.067H418.133z"/>
	</g>
</g>
<g>
	<g>
		<path d="M349.867,162.133V179.2c0,14.114-11.486,25.6-25.6,25.6s-25.6-11.486-25.6-25.6v-17.067H281.6V179.2
			c0,23.526,19.14,42.667,42.667,42.667c23.526,0,42.667-19.14,42.667-42.667v-17.067H349.867z"/>
	</g>
</g>
<g>
	<g>
		<rect x="213.333" y="59.733" width="17.067" height="102.4"/>
	</g>
</g>
<g>
	<g>
		<rect x="281.6" y="59.733" width="17.067" height="102.4"/>
	</g>
</g>
<g>
	<g>
		
			<rect x="106.498" y="102.415" transform="matrix(0.083 -0.9965 0.9965 0.083 34.1971 259.0603)" width="102.736" height="17.066"/>
	</g>
</g>
<g>
	<g>
		
			<rect x="41.963" y="102.403" transform="matrix(0.1646 -0.9864 0.9864 0.1646 -31.0012 185.2705)" width="103.821" height="17.067"/>
	</g>
</g>
<g>
	<g>
		<rect x="345.581" y="59.566" transform="matrix(0.9965 -0.083 0.083 0.9965 -7.986 29.7754)" width="17.057" height="102.736"/>
	</g>
</g>
<g>
	<g>
		
			<rect x="409.607" y="59.021" transform="matrix(0.9864 -0.1644 0.1644 0.9864 -12.5476 70.2519)" width="17.067" height="103.817"/>
	</g>
</g>
<g>
	<g>
		<path d="M469.333,17.067H42.667c-4.71,0-8.533,3.823-8.533,8.533v34.133H51.2v-25.6h409.6v25.6h17.067V25.6
			C477.867,20.89,474.052,17.067,469.333,17.067z"/>
	</g>
</g>
<g>
	<g>
		<rect x="34.133" y="213.333" width="17.067" height="230.4"/>
	</g>
</g>
<g>
	<g>
		<rect x="460.8" y="213.333" width="17.067" height="238.933"/>
	</g>
</g>
<g>
	<g>
		<path d="M315.733,256H76.8c-4.71,0-8.533,3.814-8.533,8.533v136.533c0,4.719,3.823,8.533,8.533,8.533h238.933
			c4.719,0,8.533-3.814,8.533-8.533V264.533C324.267,259.814,320.452,256,315.733,256z M307.2,392.533H85.333V273.067H307.2V392.533
			z"/>
	</g>
</g>
<g>
	<g>
		<path d="M435.2,256h-85.333c-4.719,0-8.533,3.814-8.533,8.533v187.733c0,4.719,3.814,8.533,8.533,8.533H435.2
			c4.719,0,8.533-3.814,8.533-8.533V264.533C443.733,259.814,439.919,256,435.2,256z M426.667,443.733H358.4V273.067h68.267V443.733
			z"/>
	</g>
</g>
<g>
	<g>
		
			<rect x="120.962" y="307.197" transform="matrix(0.7071 -0.7071 0.7071 0.7071 -180.7566 195.0755)" width="48.273" height="17.067"/>
	</g>
</g>
<g>
	<g>
		
			<rect x="129.185" y="319.973" transform="matrix(0.7071 -0.7071 0.7071 0.7071 -178.5461 225.965)" width="108.611" height="17.067"/>
	</g>
</g>
<g>
	<g>
		
			<rect x="197.719" y="341.338" transform="matrix(0.7071 -0.7071 0.7071 0.7071 -182.4167 259.3502)" width="48.273" height="17.067"/>
	</g>
</g>
<g>
</g>
<g>
</g>
<g>
</g>
<g>
</g>
<g>
</g>
<g>
</g>
<g>
</g>
<g>
</g>
<g>
</g>
<g>
</g>
<g>
</g>
<g>
</g>
<g>
</g>
<g>
</g>
<g>
</g>
</svg>
