<?xml version="1.0" encoding="utf-8"?>
<svg version="1.1" id="Layer_1"
xmlns="http://www.w3.org/2000/svg"
xmlns:xlink="http://www.w3.org/1999/xlink"
width="550px" height="400px"
xml:space="preserve">
<g id="PathID_1" transform="matrix(0.376889, 0, 0, 0.376889, 248.45, 88.45)" opacity="1">
<path style="fill:#000000;fill-opacity:1" d="M469.25 476.35Q469.5 477.3 469.5 478.2Q469.5 479.15 469.25 480.05Q469.05 481 468.65 481.85Q468.2 482.7 467.65 483.45Q467.05 484.2 466.35 484.8Q465.6 485.4 464.75 485.85Q463.9 486.25 463 486.5Q437.55 492.85 411.85 497.6Q386.1 502.35 360.15 505.55Q334.2 508.7 308.15 510.3Q282.05 511.9 255.95 511.9Q229.8 511.9 203.7 510.3Q177.6 508.7 151.65 505.5Q125.7 502.35 100 497.55Q74.25 492.8 48.9 486.5Q47.95 486.25 47.1 485.8Q46.25 485.35 45.5 484.75Q44.8 484.15 44.2 483.45Q43.6 482.7 43.25 481.85Q42.85 480.95 42.65 480.05Q42.45 479.1 42.45 478.2Q42.45 477.25 42.65 476.3Q42.85 475.4 43.3 474.55L178.95 195.3L154.05 87.25Q153.8 86.15 153.8 85.05Q153.85 83.95 154.15 82.95Q154.45 81.9 154.95 80.95Q155.5 80.05 156.3 79.3Q159.8 75.75 162.5 71.65Q165.25 67.6 167.1 63.1Q168.9 58.65 169.85 53.85Q170.85 49.05 170.85 44.1L170.85 8.5Q170.85 6.7 171.5 5.15Q172.15 3.6 173.3 2.45Q174.45 1.3 176 0.65Q177.55 0 179.35 0L213.5 0Q215.25 0 216.8 0.65Q218.35 1.3 219.5 2.45Q220.65 3.6 221.3 5.15Q222 6.7 222 8.5L222 59.7Q222 66.75 224.65 72.95Q227.35 79.2 232 83.8Q236.65 88.45 242.85 91.15Q249.1 93.85 256.15 93.85Q263.2 93.85 269.4 91.15Q275.65 88.45 280.25 83.8Q284.9 79.15 287.6 72.95Q290.3 66.75 290.3 59.7L290.3 8.5Q290.3 6.7 290.95 5.15Q291.6 3.6 292.75 2.45Q293.9 1.3 295.45 0.65Q297 0 298.8 0L332.95 0Q334.7 0 336.25 0.65Q337.8 1.3 338.95 2.45Q340.1 3.6 340.75 5.15Q341.45 6.7 341.45 8.5L341.45 44.15Q341.45 49.1 342.4 53.9Q343.35 58.7 345.2 63.2Q347.05 67.65 349.75 71.75Q352.45 75.8 356 79.35Q356.75 80.1 357.3 81.05Q357.8 82 358.1 83Q358.4 84.05 358.45 85.15Q358.45 86.2 358.25 87.3L333.3 195.4L468.65 474.55Q469.05 475.4 469.25 476.35M159 489.25Q207.35 494.85 255.9 494.85Q304.45 494.8 352.75 489.2Q401.1 483.55 448.35 472.3L316.35 200L315.85 198.65Q315.65 197.95 315.6 197.25Q315.5 196.5 315.55 195.8L315.75 194.4L340.35 87.8Q336.4 83.25 333.35 78.1Q330.35 73 328.25 67.45Q326.2 61.9 325.15 56.05Q324.1 50.15 324.1 44.1L324.1 17.05L307.05 17.05L307.05 59.75Q307.05 70.3 303 79.65Q298.95 88.95 292 95.9Q285.05 102.85 275.75 106.9Q266.4 110.95 255.85 110.95Q245.25 110.95 235.9 106.9Q226.6 102.85 219.65 95.9Q212.7 88.95 208.65 79.65Q204.65 70.3 204.65 59.75L204.65 17.05L187.6 17.05L187.6 44.2Q187.6 50.25 186.5 56.15Q185.45 62 183.4 67.55Q181.35 73.1 178.3 78.2Q175.25 83.3 171.35 87.9L195.9 194.6L196.1 196Q196.15 196.7 196.05 197.45Q196 198.15 195.8 198.85L195.3 200.2L63.3 472.5Q110.65 483.65 159 489.25" />
</g>
<g id="PathID_2" transform="matrix(0.376889, 0, 0, 0.376889, 248.45, 88.45)" opacity="1">
</g>
<g id="PathID_3" transform="matrix(0.376889, 0, 0, 0.376889, 248.45, 88.45)" opacity="1">
<path style="fill:#000000;fill-opacity:1" d="M230.35 204.95L213.3 204.95L213.3 187.9L230.35 187.9L230.35 204.95" />
</g>
<g id="PathID_4" transform="matrix(0.376889, 0, 0, 0.376889, 248.45, 88.45)" opacity="1">
</g>
<g id="PathID_5" transform="matrix(0.376889, 0, 0, 0.376889, 248.45, 88.45)" opacity="1">
<path style="fill:#000000;fill-opacity:1" d="M264.5 204.95L247.45 204.95L247.45 187.9L264.5 187.9L264.5 204.95" />
</g>
<g id="PathID_6" transform="matrix(0.376889, 0, 0, 0.376889, 248.45, 88.45)" opacity="1">
</g>
<g id="PathID_7" transform="matrix(0.376889, 0, 0, 0.376889, 248.45, 88.45)" opacity="1">
<path style="fill:#000000;fill-opacity:1" d="M298.65 204.95L281.6 204.95L281.6 187.9L298.65 187.9L298.65 204.95" />
</g>
<g id="PathID_8" transform="matrix(0.376889, 0, 0, 0.376889, 248.45, 88.45)" opacity="1">
</g>
<g id="PathID_9" transform="matrix(0.108203, -0.361017, 0.361017, 0.108203, 122.8, 260.8)" opacity="1">
<path style="fill:#000000;fill-opacity:1" d="M185.2 461.2L96.05 461.2L96.05 444.15L185.2 444.15L185.2 461.2" />
</g>
<g id="PathID_10" transform="matrix(0.108203, -0.361017, 0.361017, 0.108203, 122.8, 260.8)" opacity="1">
</g>
<g id="PathID_11" transform="matrix(0.0375359, -0.375003, 0.375003, 0.0375359, 149.3, 326.5)" opacity="1">
<path style="fill:#000000;fill-opacity:1" d="M260.45 469.75L174.65 469.75L174.65 452.7L260.45 452.7L260.45 469.75" />
</g>
<g id="PathID_12" transform="matrix(0.0375359, -0.375003, 0.375003, 0.0375359, 149.3, 326.5)" opacity="1">
</g>
<g id="PathID_13" transform="matrix(0.360982, -0.108277, 0.108277, 0.360982, 205.3, 135.8)" opacity="1">
<path style="fill:#000000;fill-opacity:1" d="M379.8 497.25L362.75 497.25L362.75 408.1L379.8 408.1L379.8 497.25" />
</g>
<g id="PathID_14" transform="matrix(0.360982, -0.108277, 0.108277, 0.360982, 205.3, 135.8)" opacity="1">
</g>
<g id="PathID_15" transform="matrix(0.375003, -0.0374957, 0.0374957, 0.375003, 231.7, 100.3)" opacity="1">
<path style="fill:#000000;fill-opacity:1" d="M302.95 504.1L285.9 504.1L285.9 418.3L302.95 418.3L302.95 504.1" />
</g>
<g id="PathID_16" transform="matrix(0.375003, -0.0374957, 0.0374957, 0.375003, 231.7, 100.3)" opacity="1">
</g>
<g id="PathID_17" transform="matrix(0.376889, 0, 0, 0.376889, 248.45, 88.45)" opacity="1">
<path style="fill:#000000;fill-opacity:1" d="M305.2 14L303.3 16.15L301.3 18.25L299.2 20.25L297.05 22.15Q292.55 25.85 287.6 28.65Q282.65 31.4 277.45 33.25Q272.25 35.1 266.85 36Q261.45 36.95 256.05 36.95Q249.15 36.95 242.35 35.45Q235.55 34 229.2 31.1Q222.9 28.2 217.2 23.9Q211.45 19.6 206.75 13.95L219.85 3.05Q226.05 10.5 234.4 14.7Q242.7 18.9 251.7 19.7Q260.7 20.55 269.65 17.9Q278.6 15.25 286.1 9.05L287.7 7.6L289.25 6.15L290.7 4.6L292.1 3.05L305.2 14" />
</g>
<g id="PathID_18" transform="matrix(0.376889, 0, 0, 0.376889, 248.45, 88.45)" opacity="1">
</g>
<g id="PathID_19" transform="matrix(0.376889, 0, 0, 0.376889, 248.45, 88.45)" opacity="1">
<path style="fill:#000000;fill-opacity:1" d="M273.05 68.3L238.9 68.3L238.9 51.25L273.05 51.25L273.05 68.3" />
</g>
<g id="PathID_20" transform="matrix(0.376889, 0, 0, 0.376889, 248.45, 88.45)" opacity="1">
</g>
<g id="PathID_21" transform="matrix(0.399459, 0, 0, 0.399459, 102.65, 145.6)" opacity="1">
<path style="fill:#000000;fill-opacity:1" d="M511.95 128.55Q511.85 129.4 511.65 130.2Q511.4 131 510.95 131.75Q510.5 132.5 509.9 133.2L450.2 210Q449.15 211.3 447.7 212.1Q446.25 212.9 444.65 213.1Q443.05 213.35 441.45 212.95Q439.85 212.6 438.45 211.6L400.85 184.05L400.85 469.2Q400.85 470.95 400.15 472.5Q399.5 474.05 398.35 475.2Q397.2 476.35 395.65 477Q394.1 477.7 392.35 477.7L119.3 477.7Q117.5 477.7 115.95 477Q114.4 476.35 113.25 475.2Q112.1 474.05 111.45 472.5Q110.8 470.95 110.8 469.2L110.8 184L73.2 211.55Q71.8 212.55 70.15 212.95Q68.55 213.35 66.95 213.15Q65.35 212.9 63.9 212.1Q62.5 211.3 61.45 209.95L1.75 133.15Q1.2 132.45 0.85 131.7Q0.45 130.95 0.25 130.15Q0.05 129.3 0 128.5Q-0.05 127.65 0.05 126.85Q0.15 126 0.4 125.2Q0.7 124.4 1.1 123.65Q1.5 122.95 2.05 122.3Q2.6 121.7 3.3 121.2L114.45 35.9Q115 35.45 115.6 35.1L116.9 34.55Q117.55 34.35 118.25 34.25L119.65 34.15L179.35 34.15Q181.1 34.15 182.65 34.8Q184.2 35.45 185.35 36.6Q186.5 37.75 187.15 39.3Q187.85 40.85 187.85 42.65Q187.85 56.75 193.2 69.15Q198.6 81.6 207.85 90.85Q217.1 100.15 229.55 105.5Q242 110.9 256.1 110.9Q270.2 110.9 282.6 105.5Q295.05 100.1 304.3 90.85Q313.6 81.6 318.95 69.15Q324.35 56.75 324.35 42.65Q324.35 40.85 325 39.3Q325.65 37.75 326.8 36.6Q327.95 35.45 329.5 34.8Q331.05 34.15 332.85 34.15L392.55 34.15L393.9 34.25Q394.6 34.35 395.25 34.55L396.5 35.1Q397.15 35.45 397.7 35.9L508.65 121.25Q509.3 121.75 509.85 122.35Q510.4 123 510.85 123.7Q511.25 124.45 511.5 125.25Q511.8 126.05 511.9 126.9Q512 127.7 511.95 128.55M491.35 129.5L389.55 51.2L340.85 51.2Q339.2 67.35 331.95 81.35Q324.7 95.4 313.3 105.75Q301.95 116.1 287.2 122.05Q272.5 128 255.95 128Q239.35 128 224.6 122.05Q209.85 116.1 198.5 105.7Q187.1 95.35 179.85 81.35Q172.6 67.3 171.05 51.2L122.35 51.2L20.6 129.5L69.95 192.95L114.45 160.35Q115.4 159.65 116.5 159.25Q117.6 158.85 118.8 158.75Q119.95 158.65 121.1 158.9Q122.25 159.1 123.35 159.65Q124.4 160.15 125.25 160.95Q126.1 161.8 126.7 162.75Q127.3 163.75 127.65 164.9Q128 166.05 128 167.25L128 460.8L384 460.8L384 167.3Q384 166.05 384.3 164.9Q384.65 163.8 385.25 162.8Q385.85 161.8 386.7 161Q387.55 160.2 388.65 159.7Q389.7 159.15 390.9 158.9Q392.05 158.7 393.2 158.8Q394.35 158.9 395.45 159.3Q396.55 159.7 397.55 160.4L442.05 193L491.35 129.5" />
</g>
<g id="PathID_22" transform="matrix(0.399459, 0, 0, 0.399459, 102.65, 145.6)" opacity="1">
</g>
<g id="PathID_23" transform="matrix(0.399459, 0, 0, 0.399459, 102.65, 145.6)" opacity="1">
<path style="fill:#000000;fill-opacity:1" d="M281.6 93.85L230.4 93.85L230.4 76.8L281.6 76.8L281.6 93.85" />
</g>
<g id="PathID_24" transform="matrix(0.399459, 0, 0, 0.399459, 102.65, 145.6)" opacity="1">
</g>
<g id="PathID_25" transform="matrix(0.399459, 0, 0, 0.399459, 102.65, 145.6)" opacity="1">
<path style="fill:#000000;fill-opacity:1" d="M335.55 50.7Q325.9 53.9 316.05 56.3Q306.2 58.7 296.25 60.3Q286.25 61.9 276.2 62.7Q266.1 63.5 256.05 63.5Q245.9 63.5 235.85 62.7Q225.75 61.9 215.75 60.3Q205.8 58.7 195.95 56.3Q186.15 53.9 176.55 50.7L181.95 34.55Q199.85 40.5 218.5 43.5Q237.15 46.5 256 46.5Q274.8 46.5 293.5 43.5Q312.15 40.5 330.1 34.55L335.55 50.7" />
</g>
<g id="PathID_26" transform="matrix(0.399459, 0, 0, 0.399459, 102.65, 145.6)" opacity="1">
</g>
</svg>
