<?xml version="1.0" encoding="utf-8"?>
<svg version="1.1" id="Layer_1"
xmlns="http://www.w3.org/2000/svg"
xmlns:xlink="http://www.w3.org/1999/xlink"
width="550px" height="400px"
xml:space="preserve">
<g id="PathID_27" transform="matrix(0.668478, 0, 0, 0.668478, 94.85, 34.85)" opacity="1">
<path style="fill:#000000;fill-opacity:1" d="M139.35 341.05Q148.65 345.1 155.6 352.05Q162.55 359 166.6 368.3Q170.65 377.65 170.65 388.25Q170.65 398.8 166.6 408.15Q162.55 417.45 155.6 424.4Q148.65 431.35 139.35 435.4Q130 439.45 119.45 439.45Q108.85 439.45 99.5 435.4Q90.2 431.35 83.25 424.4Q76.3 417.45 72.25 408.1Q68.25 398.8 68.25 388.25Q68.25 377.65 72.25 368.3Q76.3 359 83.25 352.05Q90.2 345.1 99.55 341.05Q108.85 337.05 119.45 337.05Q130 337.05 139.35 341.05M132.7 419.7Q138.9 417 143.55 412.35Q148.2 407.7 150.85 401.5Q153.55 395.3 153.55 388.3Q153.55 381.25 150.85 375Q148.15 368.8 143.55 364.2Q138.9 359.55 132.7 356.85Q126.5 354.2 119.45 354.2Q112.4 354.2 106.15 356.85Q99.95 359.55 95.35 364.2Q90.7 368.8 88 375Q85.35 381.25 85.35 388.3Q85.35 395.35 88 401.55Q90.7 407.75 95.35 412.4Q99.95 417 106.15 419.7Q112.4 422.4 119.45 422.4Q126.5 422.4 132.7 419.7" />
</g>
<g id="PathID_28" transform="matrix(0.668478, 0, 0, 0.668478, 94.85, 34.85)" opacity="1">
</g>
<g id="PathID_29" transform="matrix(0.668478, 0, 0, 0.668478, 94.85, 34.85)" opacity="1">
<path style="fill:#000000;fill-opacity:1" d="M429.45 341.05Q438.8 345.1 445.75 352.05Q452.7 359 456.75 368.3Q460.8 377.65 460.8 388.25Q460.8 398.8 456.75 408.15Q452.7 417.45 445.75 424.4Q438.8 431.35 429.45 435.4Q420.15 439.45 409.6 439.45Q399 439.45 389.65 435.4Q380.35 431.35 373.4 424.4Q366.45 417.45 362.4 408.1Q358.4 398.8 358.4 388.25Q358.4 377.65 362.4 368.3Q366.45 359 373.4 352.05Q380.35 345.1 389.7 341.05Q399 337.05 409.6 337.05Q420.15 337.05 429.45 341.05M422.85 419.7Q429.05 417 433.7 412.35Q438.3 407.7 441 401.5Q443.7 395.3 443.7 388.3Q443.7 381.25 441 375Q438.3 368.8 433.7 364.2Q429.05 359.55 422.85 356.85Q416.65 354.2 409.6 354.2Q402.55 354.2 396.3 356.85Q390.1 359.55 385.5 364.2Q380.85 368.8 378.15 375Q375.5 381.25 375.5 388.3Q375.5 395.35 378.15 401.55Q380.85 407.75 385.5 412.4Q390.1 417 396.3 419.7Q402.55 422.4 409.6 422.4Q416.65 422.4 422.85 419.7" />
</g>
<g id="PathID_30" transform="matrix(0.668478, 0, 0, 0.668478, 94.85, 34.85)" opacity="1">
</g>
<g id="PathID_31" transform="matrix(0.668478, 0, 0, 0.668478, 94.85, 34.85)" opacity="1">
<path style="fill:#000000;fill-opacity:1" d="M511.15 290.8Q511.45 291.35 511.6 291.95L511.85 293.15L511.9 294.4L511.9 388.3Q511.9 390.05 511.2 391.6Q510.55 393.15 509.4 394.3Q508.25 395.45 506.7 396.1Q505.15 396.8 503.4 396.8L452.2 396.8L452.2 379.65L494.85 379.65L494.85 296.85L421.95 183.45L341.3 183.45L341.3 379.65L366.9 379.65L366.9 396.7L332.8 396.7Q331 396.7 329.45 396Q327.9 395.35 326.75 394.2Q325.6 393.05 324.95 391.5Q324.3 389.95 324.3 388.2L324.3 174.9Q324.3 173.1 324.95 171.55Q325.6 170 326.75 168.85Q327.9 167.7 329.45 167.05Q331 166.4 332.8 166.4L426.65 166.4Q427.7 166.4 428.75 166.65Q429.8 166.9 430.7 167.45Q431.65 167.95 432.4 168.65Q433.2 169.4 433.8 170.3L510.6 289.75L511.15 290.8" />
</g>
<g id="PathID_32" transform="matrix(0.668478, 0, 0, 0.668478, 94.85, 34.85)" opacity="1">
</g>
<g id="PathID_33" transform="matrix(0.668478, 0, 0, 0.668478, 94.85, 34.85)" opacity="1">
<path style="fill:#000000;fill-opacity:1" d="M494.9 277.3L494.9 294.35L366.9 294.35Q365.1 294.35 363.55 293.65Q362 293 360.85 291.85Q359.7 290.7 359.05 289.15Q358.4 287.6 358.4 285.85L358.4 209.05Q358.4 207.25 359.05 205.7Q359.7 204.15 360.85 203Q362 201.85 363.55 201.2Q365.1 200.55 366.9 200.55L443.7 200.55L443.7 217.6L375.45 217.6L375.45 277.3L494.9 277.3" />
</g>
<g id="PathID_34" transform="matrix(0.668478, 0, 0, 0.668478, 94.85, 34.85)" opacity="1">
</g>
<g id="PathID_35" transform="matrix(0.668478, 0, 0, 0.668478, 94.85, 34.85)" opacity="1">
<path style="fill:#000000;fill-opacity:1" d="M336.1 107.3Q337.65 107.95 338.8 109.1Q339.95 110.3 340.6 111.85Q341.3 113.4 341.3 115.2L341.3 388.3Q341.3 390.05 340.6 391.6Q339.95 393.15 338.8 394.3Q337.65 395.45 336.1 396.1Q334.55 396.8 332.8 396.8L162.1 396.8L162.1 379.7L324.25 379.7L324.25 123.7L17.05 123.7L17.05 379.7L76.8 379.7L76.8 396.75L8.5 396.75Q6.7 396.75 5.15 396.05Q3.6 395.4 2.45 394.25Q1.3 393.1 0.65 391.55Q0 390 0 388.25L0 115.2Q0 113.4 0.65 111.85Q1.3 110.3 2.45 109.1Q3.6 107.95 5.15 107.3Q6.7 106.65 8.5 106.65L332.8 106.65Q334.55 106.65 336.1 107.3" />
</g>
<g id="PathID_36" transform="matrix(0.668478, 0, 0, 0.668478, 94.85, 34.85)" opacity="1">
</g>
<g id="PathID_37" transform="matrix(0.668478, 0, 0, 0.668478, 94.85, 34.85)" opacity="1">
<path style="fill:#000000;fill-opacity:1" d="M59.7 362.65L8.5 362.65L8.5 345.6L59.7 345.6L59.7 362.65" />
</g>
<g id="PathID_38" transform="matrix(0.668478, 0, 0, 0.668478, 94.85, 34.85)" opacity="1">
</g>
<g id="PathID_39" transform="matrix(0.668478, 0, 0, 0.668478, 94.85, 34.85)" opacity="1">
<path style="fill:#000000;fill-opacity:1" d="M324.25 362.65L179.2 362.65L179.2 345.6L324.25 345.6L324.25 362.65" />
</g>
<g id="PathID_40" transform="matrix(0.668478, 0, 0, 0.668478, 94.85, 34.85)" opacity="1">
</g>
<g id="PathID_41" transform="matrix(0.668478, 0, 0, 0.668478, 94.85, 34.85)" opacity="1">
<path style="fill:#000000;fill-opacity:1" d="M503.45 362.65L469.35 362.65L469.35 345.6L503.45 345.6L503.45 362.65" />
</g>
<g id="PathID_42" transform="matrix(0.668478, 0, 0, 0.668478, 94.85, 34.85)" opacity="1">
</g>
<g id="PathID_43" transform="matrix(0.668478, 0, 0, 0.668478, 94.85, 34.85)" opacity="1">
<path style="fill:#000000;fill-opacity:1" d="M332.75 157.85L34.1 157.85L34.1 140.8L332.75 140.8L332.75 157.85" />
</g>
<g id="PathID_44" transform="matrix(0.668478, 0, 0, 0.668478, 94.85, 34.85)" opacity="1">
</g>
<g id="PathID_45" transform="matrix(0.668478, 0, 0, 0.668478, 94.85, 34.85)" opacity="1">
<path style="fill:#000000;fill-opacity:1" d="M128 396.8L110.95 396.8L110.95 379.75L128 379.75L128 396.8" />
</g>
<g id="PathID_46" transform="matrix(0.668478, 0, 0, 0.668478, 94.85, 34.85)" opacity="1">
</g>
<g id="PathID_47" transform="matrix(0.668478, 0, 0, 0.668478, 94.85, 34.85)" opacity="1">
<path style="fill:#000000;fill-opacity:1" d="M418.1 396.8L401.05 396.8L401.05 379.75L418.1 379.75L418.1 396.8" />
</g>
<g id="PathID_48" transform="matrix(0.668478, 0, 0, 0.668478, 94.85, 34.85)" opacity="1">
</g>
<g id="PathID_49" transform="matrix(0.668478, 0, 0, 0.668478, 94.85, 34.85)" opacity="1">
<path style="fill:#000000;fill-opacity:1" d="M153.6 89.6L34.15 89.6L34.15 72.55L153.6 72.55L153.6 89.6" />
</g>
<g id="PathID_50" transform="matrix(0.668478, 0, 0, 0.668478, 94.85, 34.85)" opacity="1">
</g>
<g id="PathID_51" transform="matrix(0.668478, 0, 0, 0.668478, 94.85, 34.85)" opacity="1">
<path style="fill:#000000;fill-opacity:1" d="M17.05 89.6L0 89.6L0 72.55L17.05 72.55L17.05 89.6" />
</g>
<g id="PathID_52" transform="matrix(0.668478, 0, 0, 0.668478, 94.85, 34.85)" opacity="1">
</g>
<g id="PathID_53" transform="matrix(0.621622, 0, 0, 0.621622, 177.65, 159.35)" opacity="1">
<path style="fill:#000000;fill-opacity:1" d="M91.15 45.3L76.05 45.3Q75 38.05 72.6 34.6Q70.15 31.7 63.35 28.7L63.35 67.65Q94.45 75.95 94.45 99.3Q94.45 117.25 76.95 127.1Q71.05 129.95 63.35 131.45L63.35 150L53.7 150L53.7 132.5L42.4 132.5L42.4 150L32.75 150L32.75 131Q18.4 128.6 10.85 121.2Q0 111.4 0 96.45L0 95.4L15.1 95.4Q15.1 111.4 32.75 118.35L32.75 74.4Q22.5 72 17.05 68.55Q2.55 60.4 2.55 45.3Q2.55 31.1 15.1 22.35Q21 18 32.75 15.55L32.75 0L42.4 0L42.4 14.2L53.7 14.2L53.7 0L63.35 0L63.35 15.55Q79.5 18.9 86.15 28.7Q91 35.65 91.15 45.3M42.4 25.85L42.4 63.7L53.7 65.65L53.7 25.85L42.4 25.85M21.9 33.65Q17.5 38.05 17.5 44.7Q17.5 55.4 32.75 61.45L32.75 27.8Q25.35 30.65 21.9 33.65M42.4 77L42.4 120.75L53.7 120.75L53.7 78.95L42.4 77M79.95 100.35Q79.95 87.1 63.35 81.35L63.35 118.35Q79.95 111.4 79.95 100.35" />
</g>
<g id="PathID_54" transform="matrix(0.621622, 0, 0, 0.621622, 177.65, 159.35)" opacity="1">
</g>
</svg>
